<svg xmlns="http://www.w3.org/2000/svg" viewBox="0 0 360 132" width="360" height="132" role="img" aria-label="Coss Fast Food">
  <defs>
    <linearGradient id="ember" x1="0" y1="0" x2="1" y2="1">
      <stop offset="0" stop-color="#ff7a2f"/>
      <stop offset="1" stop-color="#e23412"/>
    </linearGradient>
  </defs>
  <!-- White background badge -->
  <rect x="2" y="2" width="356" height="128" rx="26" fill="#ffffff" stroke="#efe4d6" stroke-width="2"/>
  <!-- Flame emblem -->
  <g transform="translate(30,20)">
    <rect width="92" height="92" rx="22" fill="url(#ember)"/>
    <path d="M46 14c1 8-3 12-3 18 0 3 2 5 4 5 3 0 4-3 4-6 5 4 9 10 9 18a20 20 0 1 1-40 0c0-9 5-14 9-19 3-4 6-8 6-16 0-2 3-2 4 0z" fill="#ffd59a"/>
    <path d="M46 40c.5 6-3 8-3 13a9 9 0 0 0 18 0c0-6-4-9-7-13-1 3-2 5-4 5s-3-3-4-5z" fill="#ffffff"/>
  </g>
  <!-- Wordmark -->
  <text x="140" y="66" font-family="'Arial Black',Impact,sans-serif" font-weight="900" font-size="52" letter-spacing="1" fill="#1c0e07">COSS</text>
  <text x="142" y="98" font-family="Arial,Helvetica,sans-serif" font-weight="700" font-size="20" letter-spacing="7" fill="#e23412">FAST FOOD</text>
</svg>
